<?xml version="1.0" standalone="no"?>
<!DOCTYPE svg PUBLIC "-//W3C//DTD SVG 20010904//EN"
 "http://www.w3.org/TR/2001/REC-SVG-20010904/DTD/svg10.dtd">
<svg version="1.0" xmlns="http://www.w3.org/2000/svg"
 width="72.000000pt" height="40.000000pt" viewBox="0 0 72.000000 40.000000"
 preserveAspectRatio="xMidYMid meet">

<g transform="translate(0.000000,40.000000) scale(0.100000,-0.100000)"
fill="#000000" stroke="none">
<path d="M297 377 c-3 -9 4 -12 26 -11 48 3 124 -44 97 -61 -5 -3 -10 -2 -10
4 0 6 -7 8 -15 5 -12 -5 -14 -2 -8 12 6 17 5 18 -12 4 -17 -14 -18 -13 -12 3
3 9 3 17 0 17 -4 0 -15 -8 -26 -17 -19 -17 -20 -17 -14 0 4 9 2 17 -3 17 -6 0
-10 -4 -10 -10 0 -5 -5 -10 -11 -10 -5 0 -7 6 -4 13 4 6 0 4 -8 -6 -11 -14
-16 -15 -20 -5 -4 10 -6 10 -6 1 -1 -7 -10 -13 -20 -13 -11 0 -23 -5 -26 -10
-4 -6 -11 -8 -16 -5 -5 4 -9 1 -9 -5 0 -6 -4 -9 -9 -5 -5 3 -21 0 -36 -7 -18
-8 -22 -14 -13 -19 7 -4 9 -11 5 -15 -3 -4 -14 -1 -24 7 -13 11 -15 11 -9 1 6
-10 3 -13 -10 -12 -42 5 -48 1 -29 -20 10 -11 22 -17 27 -14 4 3 7 0 6 -7 -2
-7 4 -13 12 -14 8 0 17 -11 20 -25 l6 -25 6 28 c3 15 3 25 0 22 -7 -6 -32 15
-32 27 0 6 7 8 15 4 22 -8 45 3 39 19 -3 7 3 18 14 24 41 22 107 -14 97 -53
-5 -19 -4 -19 6 1 10 20 17 22 58 17 41 -5 125 -33 249 -83 65 -27 52 -42 -22
-28 -18 4 -52 -3 -95 -19 -57 -22 -75 -25 -138 -19 -40 4 -73 10 -73 13 1 14
29 44 37 39 4 -3 16 6 26 18 17 23 8 43 -13 30 -5 -3 -10 0 -10 7 0 7 -10 -7
-22 -32 -19 -36 -28 -44 -56 -47 -20 -2 -31 1 -27 7 8 13 2 13 -30 -4 l-27
-14 34 -7 c62 -12 68 -16 83 -52 18 -43 41 -39 37 5 -3 24 1 32 13 32 13 0 16
-8 13 -32 -2 -19 2 -33 10 -35 8 -3 12 6 12 26 0 28 3 31 32 31 22 0 42 -10
65 -32 28 -27 37 -31 59 -22 15 5 36 21 47 36 17 22 18 30 7 43 -10 13 -9 15
6 15 27 0 36 -9 59 -55 11 -22 26 -40 34 -40 15 0 61 148 61 198 0 32 -23 36
-59 11 -13 -9 -39 -20 -58 -24 -32 -8 -34 -7 -19 9 9 10 16 28 16 40 0 28 -51
81 -79 81 -26 0 -35 -15 -10 -17 28 -2 49 -22 49 -45 0 -17 -6 -15 -42 16 -42
36 -65 47 -52 24 4 -7 -8 3 -27 22 -41 43 -85 65 -93 47 -3 -9 -5 -9 -5 1 -1
16 -27 16 -34 -1z m134 -93 c25 -8 61 -28 80 -45 l34 -30 -43 30 c-48 33 -145
54 -211 46 -53 -7 -79 7 -31 16 44 9 112 2 171 -17z m240 -72 c-7 -13 -6 -23
1 -30 8 -8 9 -12 1 -12 -6 0 -13 7 -17 15 -3 9 -12 12 -23 9 -10 -3 -4 3 12
15 37 26 38 26 26 3z m-64 -28 c-3 -3 -12 -4 -19 -1 -8 3 -5 6 6 6 11 1 17 -2
13 -5z m56 -69 c-3 -9 -8 -14 -10 -11 -3 3 -2 9 2 15 9 16 15 13 8 -4z m-25
-50 c-3 -3 -9 2 -12 12 -6 14 -5 15 5 6 7 -7 10 -15 7 -18z m-122 -1 c-3 -19
-24 -34 -48 -34 -22 0 -24 29 -3 31 28 3 33 4 41 12 11 10 13 9 10 -9z"/>
<path d="M30 218 c0 -16 -5 -27 -11 -25 -6 1 -14 -5 -16 -13 -3 -10 -2 -11 4
-4 12 16 59 11 81 -9 14 -13 22 -15 27 -7 4 6 4 14 1 17 -3 4 -6 0 -6 -8 0 -8
-18 6 -40 31 -39 44 -39 45 -40 18z"/>
<path d="M363 173 c-11 -21 -26 -37 -34 -35 -11 3 -11 1 -2 -9 17 -17 39 -5
58 32 24 46 3 58 -22 12z"/>
<path d="M20 161 c0 -4 23 -18 51 -30 41 -17 55 -19 66 -9 8 7 22 13 30 14 8
2 18 5 21 9 4 3 -17 3 -45 -1 -38 -5 -60 -2 -84 10 -37 19 -39 19 -39 7z"/>
<path d="M252 165 c4 -4 0 -13 -9 -20 -11 -8 -12 -14 -5 -19 6 -3 16 2 22 13
7 15 7 22 -2 27 -7 4 -10 4 -6 -1z"/>
</g>
</svg>
